# xmcd
# 
# Track frame offsets:
#     150
#     17145
#     33085
#     48142
#     62022
#     86560
#     104180
#     119855
#     141462
#     158562
# 
# Disc length: 2401
# 
# Revision: 10
# Processed by: cddbd v1.5.2PL0 Copyright (c) Steve Scherf et al.
# Submitted via: fre:ac v1.0.17
# 
DISCID=88095f0a
DTITLE=Daniel Balavoine - Le Chanteur
DYEAR=1978
DGENRE=Variété Française
TTITLE0=Les Oiseaux 1/2
TTITLE1=Les Oiseaux 2/2
TTITLE2=France
TTITLE3=C'est un Voyou
TTITLE4=Lucie
TTITLE5=Le Chanteur
TTITLE6=Si je suis fou
TTITLE7=Oiseau de nuit
TTITLE8=Le pied par terre
TTITLE9=Des gens comme vous
EXTD=
EXTT0=
EXTT1=
EXTT2=
EXTT3=
EXTT4=
EXTT5=
EXTT6=
EXTT7=
EXTT8=
EXTT9=
PLAYORDER=
